<svg width="408" height="229" viewBox="0 0 408 229" fill="none" xmlns="http://www.w3.org/2000/svg">
<path d="M74.2168 201.308V218.988V226.291H98.3518V218.988V201.308V194.006H74.2168V201.308Z" fill="#0A0A0A" stroke="#0A0A0A" stroke-linecap="round" stroke-linejoin="round"/>
<path d="M123.536 194.005V201.308V218.988V226.29H147.656V218.988V201.308V194.005H123.536Z" fill="#0A0A0A" stroke="#0A0A0A" stroke-linecap="round" stroke-linejoin="round"/>
<path d="M75.2631 52.7989C75.2631 52.7989 72.3998 66.9675 76.6946 75.3938C80.9895 83.8201 85.9067 88.5326 86.7315 90.998C87.5562 93.4635 87.7585 110.098 90.6217 116.058C93.4849 122.019 92.2556 125.093 92.2556 125.093C92.2556 125.093 88.1631 144.801 91.6487 152.401C95.1343 160 95.7412 174.169 97.1728 179.911C98.279 184.781 99.0331 189.725 99.4292 194.704C99.4292 195.531 97.9975 205.377 96.9705 206.204C95.9435 207.031 93.0803 206.204 92.878 209.481C92.6757 212.758 92.878 219.546 93.4849 220.404C93.9655 220.87 94.5545 221.208 95.1985 221.388C95.8426 221.568 96.5212 221.584 97.1728 221.434C97.7604 221.185 98.3873 221.042 99.0246 221.012H108.89C111.149 221.099 113.375 220.453 115.239 219.171C117.091 217.533 116.873 211.369 116.468 208.498C115.049 201.665 114.226 194.721 114.01 187.744C114.01 178.507 117.698 157.16 117.698 146.892C117.464 138.678 116.506 130.501 114.834 122.456C114.43 120.396 112.578 100.891 113.605 93.2919C114.632 85.6926 114.01 81.5887 97.4218 66.7647C80.8339 51.9407 80.3826 47.868 75.2631 52.7989Z" fill="white" stroke="#0A0A0A" stroke-linecap="round" stroke-linejoin="round"/>
<path d="M92.6914 118.934C93.3232 119.886 94.1366 120.702 95.0848 121.337C96.0329 121.972 97.0969 122.412 98.2156 122.632C102.106 123.444 105.996 122.835 105.591 114.003" stroke="#0A0A0A" stroke-linecap="round" stroke-linejoin="round"/>
<path d="M176.832 120.678C176.832 120.678 229.63 156.864 246.047 160.234C259.124 162.622 272.317 164.315 285.572 165.306C285.572 165.306 299.655 171.548 315.433 176.603C331.212 181.659 335.305 178.944 342.836 182.299C350.368 185.654 366.396 187.823 372.869 194.891C379.342 201.96 383.513 204.254 385.816 209.06C388.119 213.866 384.726 220.108 388.119 222.932C391.511 225.757 390.966 215.505 392.351 209.06C393.736 202.615 393.752 191.302 393.752 183.953C393.752 176.603 394.312 169.909 387.527 168.692C380.743 167.475 381.459 170.736 372.324 168.13C363.19 165.524 334.542 156.833 334.542 156.833L190.308 107.679L176.832 120.678Z" fill="white" stroke="#0A0A0A" stroke-linecap="round" stroke-linejoin="round"/>
<path d="M176.832 120.678C176.832 120.678 229.63 156.864 246.047 160.234C254.528 161.982 264.72 163.277 272.719 164.12C279.986 159.564 278.243 153.447 278.243 153.447L269.186 134.519L190.417 107.679L176.832 120.678Z" fill="#0A0A0A" stroke="#0A0A0A" stroke-linecap="round" stroke-linejoin="round"/>
<path d="M172.558 119.665C172.558 119.665 206.279 134.926 213.266 138.39C220.252 141.854 255.109 154.119 263.387 154.993C271.666 155.867 287.367 158.55 287.367 158.55C287.367 158.55 302.616 167.726 311.766 170.784C320.916 173.843 349.688 180.849 355.337 182.597C360.986 184.344 384.529 198.763 386.708 200.51C388.886 202.258 395.437 216.255 395.002 219.75C394.566 223.246 397.616 228.052 399.359 227.552C401.102 227.053 408.073 207.439 406.766 199.574C405.459 191.71 401.537 184.719 401.537 180.849C401.537 176.979 402.409 172.111 398.052 171.674C393.695 171.237 390.427 173.655 385.198 173.655C379.97 173.655 372.75 173.858 363.18 165.541C353.61 157.224 344.896 147.628 329.646 144.117C314.396 140.606 300.438 138.437 295.645 136.314C290.852 134.192 268.18 119.259 266.873 117.948C265.566 116.638 240.279 92.9815 240.279 92.9815C240.279 92.9815 222.851 74.2564 211.507 73.757C203.36 73.7206 195.244 74.7701 187.372 76.8779C187.372 76.8779 172.387 103.077 172.558 119.665Z" fill="white" stroke="#0A0A0A" stroke-linecap="round" stroke-linejoin="round"/>
<path d="M240.279 93.0137C240.279 93.0137 222.851 74.2886 211.507 73.7892C203.36 73.7529 195.244 74.8023 187.372 76.9101C187.372 76.9101 172.387 103.078 172.558 119.666C172.558 119.666 206.279 134.927 213.265 138.391C220.252 141.855 255.109 154.12 263.387 154.994C266.173 155.29 269.783 155.774 273.362 156.304C282.698 145.023 283.85 134.458 283.694 129.091C276.038 124.222 267.651 118.62 266.873 117.84C265.566 116.576 240.279 93.0137 240.279 93.0137Z" fill="#0A0A0A" stroke="#0A0A0A" stroke-linecap="round" stroke-linejoin="round"/>
<path d="M376.572 191.087C376.183 191.883 375.841 192.647 375.561 193.412C381.131 196.767 385.862 199.763 386.78 200.496C388.959 202.244 395.51 216.241 395.074 219.736C394.638 223.231 397.688 228.037 399.431 227.538C401.174 227.039 408.145 207.424 406.838 199.56C405.531 191.695 401.61 184.705 401.61 180.835C401.61 176.965 402.481 172.096 398.124 171.659C393.767 171.223 390.499 173.641 385.271 173.641L387.387 186.858C387.387 186.858 378.393 187.389 376.572 191.087Z" fill="white" stroke="#0A0A0A" stroke-linecap="round" stroke-linejoin="round"/>
<path d="M399.401 227.6C401.144 227.164 408.115 207.487 406.808 199.622C405.501 191.757 401.579 184.767 401.579 180.897C401.579 177.027 402.451 172.158 398.094 171.722C397.145 171.628 396.187 171.659 395.246 171.815C395.531 177.171 396.693 182.442 398.685 187.419C402.622 197.718 402.373 211.45 401.579 217.536C401.16 220.95 400.43 224.319 399.401 227.6Z" fill="white" stroke="#0A0A0A" stroke-linecap="round" stroke-linejoin="round"/>
<path d="M11.1808 12.152C11.1808 12.152 -1.5792 36.5571 1.53298 42.6115C3.04779 45.8986 5.37847 48.7407 8.30199 50.8661C8.30199 50.8661 18.7434 59.8542 20.564 60.7748C22.3846 61.6955 28.6245 60.4004 28.6245 60.4004L31.55 62.2416C31.55 62.2416 36.4828 69.2011 37.7743 69.0295C39.0659 68.8579 43.812 64.988 43.812 64.988C43.812 64.988 61.1935 67.001 62.4851 64.8008C63.7766 62.6006 63.9478 56 63.9478 56H71.9928C71.9928 56 79.2597 57.0142 80.2712 67.1726C81.0803 75.396 85.9976 83.8067 95.4119 91.2187C98.6953 93.809 120.481 107.182 132.182 111.223C143.884 115.265 172.641 119.665 172.641 119.665C179.053 112.663 183.42 104.025 185.261 94.6984C187.999 79.656 187.455 76.8941 187.455 76.8941C187.455 76.8941 176.655 67.7188 173.559 64.4107C170.462 61.1026 147.759 40.3645 131.84 31.2048C115.921 22.0452 99.4578 24.0424 91.5839 25.6965C83.7101 27.3505 68.8961 26.7888 66.3441 23.8552C63.7922 20.9216 45.2903 4.41235 37.6187 1.83765C29.9472 -0.737046 16.3003 2.60224 11.1808 12.152Z" fill="white" stroke="#0A0A0A" stroke-linecap="round" stroke-linejoin="round"/>
<path d="M63.8809 56.0015L64.4262 45.9055" stroke="#0A0A0A" stroke-linecap="round" stroke-linejoin="round"/>
<path d="M66.1853 23.8167C63.4155 20.6959 45.1625 4.42065 37.5377 1.86156C29.9128 -0.697538 16.3126 2.59495 11.193 12.1447C11.193 12.1447 -1.61364 36.5498 1.48299 42.6042C2.82453 45.32 4.66125 47.7598 6.8982 49.7978H6.97599C6.97599 49.7978 7.52063 41.5432 11.5509 36.4094C15.5812 31.2756 21.6188 37.6889 23.0816 40.8097C24.5443 43.9306 28.7457 43.7433 30.7687 42.0893C32.7916 40.4352 34.9701 37.6889 36.993 38.235C39.0159 38.7812 41.5679 39.7018 40.4787 37.33C39.3894 34.9582 33.7097 31.4472 37.1797 26.8595C40.6498 22.2719 49.9864 27.4213 50.9045 30.5422L51.8226 33.663C54.5973 32.7316 57.239 31.4412 59.6808 29.8244C62.5129 27.8894 64.8627 26.3602 66.1853 23.8167Z" fill="#0A0A0A" stroke="#0A0A0A" stroke-linecap="round" stroke-linejoin="round"/>
<path d="M34.7788 58.0308C34.7788 58.7018 33.6895 59.2479 32.3513 59.2479C31.013 59.2479 29.9082 58.7018 29.9082 58.0308C29.9082 57.3598 30.9975 56.7981 32.3513 56.7981C33.7051 56.7981 34.7788 57.3442 34.7788 58.0308Z" fill="#0A0A0A"/>
<path d="M27.3862 58.2175C27.3862 58.2175 25.2855 54.9562 28.7244 53.427" stroke="#0A0A0A" stroke-linecap="round" stroke-linejoin="round"/>
<path d="M48.5703 64.7247L48.9599 61.6663" stroke="#0A0A0A" stroke-linecap="round" stroke-linejoin="round"/>
<path d="M71.9004 55.9993C71.9004 55.9993 83.6177 58.3867 87.2745 61.3203" stroke="#0A0A0A" stroke-linecap="round" stroke-linejoin="round"/>
<path d="M93.7725 78.031C96.9624 81.3391 101.273 85.1777 105.225 86.6289" stroke="#0A0A0A" stroke-linecap="round" stroke-linejoin="round"/>
<path d="M88.9424 72.5107C88.9424 72.5107 89.8605 73.7123 91.3699 75.4288" stroke="#0A0A0A" stroke-linecap="round" stroke-linejoin="round"/>
<path d="M162.586 77.2393C163.644 76.8804 164.702 76.4747 165.791 75.991" stroke="#0A0A0A" stroke-linecap="round" stroke-linejoin="round"/>
<path d="M138.332 76.7236C144.851 79.3228 152.006 79.8672 158.841 78.2841" stroke="#0A0A0A" stroke-linecap="round" stroke-linejoin="round"/>
<path d="M174.079 100.003C170.438 96.8821 165.599 92.3101 163.949 87.9253" stroke="#0A0A0A" stroke-linecap="round" stroke-linejoin="round"/>
<path d="M178.406 103.328C178.406 103.328 177.675 102.828 176.539 101.955" stroke="#0A0A0A" stroke-linecap="round" stroke-linejoin="round"/>
<path d="M138.78 206.206H96.999V212.494H138.78V206.206Z" fill="white" stroke="#0A0A0A" stroke-linecap="round" stroke-linejoin="round"/>
<path d="M96.0952 30.6721C96.0952 30.6721 90.0575 44.2479 93.9011 56.3568C96.8207 64.6123 101.022 72.3537 106.35 79.295C106.35 79.295 103.238 93.9786 105.261 102.967C107.283 111.955 111.111 126.451 111.298 127.184C111.485 127.918 107.455 139.84 111.843 151.028C116.231 162.216 119.717 189.009 119.717 192.863C119.717 196.717 119.172 197.638 119.172 197.638C119.172 197.638 115.873 198.371 113.492 199.105C111.111 199.838 109.835 203.13 109.291 204.785C108.746 206.439 106.179 207.172 106.91 208.452C107.641 209.731 111.485 209.747 111.485 209.747L113.492 219.468C113.492 219.468 112.216 221.294 113.866 221.668C115.515 222.043 119.903 220.56 119.903 220.56C121.008 220.984 122.204 221.113 123.373 220.935C125.023 220.56 126.299 219.827 126.844 220.014C127.435 220.263 128.079 220.36 128.717 220.297C129.355 220.234 129.968 220.014 130.5 219.655C132.15 218.547 132.523 218.547 133.255 217.081C133.986 215.614 134.173 217.081 134.173 213.773C134.173 210.464 133.986 201.851 134.173 197.076C134.359 192.301 135.635 153.056 135.635 153.056C135.635 153.056 135.807 123.33 134.904 119.835C134.002 116.34 133.255 112.314 133.255 112.314C133.255 112.314 139.837 95.0709 139.292 86.2701C138.748 77.4693 136.725 72.6944 136.911 70.8531C137.098 69.0118 137.456 51.4102 137.456 51.4102" fill="white"/>
<path d="M96.0952 30.6721C96.0952 30.6721 90.0575 44.2479 93.9011 56.3568C96.8207 64.6123 101.022 72.3537 106.35 79.295C106.35 79.295 103.238 93.9786 105.261 102.967C107.283 111.955 111.111 126.451 111.298 127.184C111.485 127.918 107.455 139.84 111.843 151.028C116.231 162.216 119.717 189.009 119.717 192.863C119.717 196.717 119.172 197.638 119.172 197.638C119.172 197.638 115.873 198.371 113.492 199.105C111.111 199.838 109.835 203.13 109.291 204.785C108.746 206.439 106.179 207.172 106.91 208.452C107.641 209.731 111.485 209.747 111.485 209.747L113.492 219.468C113.492 219.468 112.216 221.294 113.866 221.668C115.515 222.043 119.903 220.56 119.903 220.56C121.008 220.984 122.204 221.113 123.373 220.935C125.023 220.56 126.299 219.827 126.844 220.014C127.435 220.263 128.079 220.36 128.717 220.297C129.355 220.234 129.968 220.014 130.5 219.655C132.15 218.547 132.523 218.547 133.255 217.081C133.986 215.614 134.173 217.081 134.173 213.773C134.173 210.464 133.986 201.851 134.173 197.076C134.359 192.301 135.635 153.056 135.635 153.056C135.635 153.056 135.807 123.33 134.904 119.835C134.002 116.34 133.255 112.314 133.255 112.314C133.255 112.314 139.837 95.0709 139.292 86.2701C138.748 77.4693 136.725 72.6944 136.911 70.8531C137.098 69.0118 137.456 51.4102 137.456 51.4102" stroke="#0A0A0A" stroke-linecap="round" stroke-linejoin="round"/>
<path d="M129.926 60.7732C129.926 60.7732 129.195 70.6663 118.396 76.5491" stroke="#0A0A0A" stroke-linecap="round" stroke-linejoin="round"/>
<path d="M131.223 97.1006C129.873 99.1291 128.342 101.03 126.648 102.781C124.626 104.622 124.626 109.756 120.424 109.756H116.207" stroke="#0A0A0A" stroke-linecap="round" stroke-linejoin="round"/>
<path d="M128.858 116.903C128.858 116.903 132.328 133.428 131.596 135.987C130.865 138.546 127.939 145.708 127.939 145.708" stroke="#0A0A0A" stroke-linecap="round" stroke-linejoin="round"/>
<path d="M134.881 119.837C134.603 121.597 133.979 123.283 133.045 124.799L131.582 126.999" stroke="#0A0A0A" stroke-linecap="round" stroke-linejoin="round"/>
<path d="M108.394 194.005H84.2588V226.29H108.394V194.005Z" fill="#5C5C5C" stroke="#0A0A0A" stroke-linecap="round" stroke-linejoin="round"/>
<path d="M108.394 201.308H84.2588V218.987H108.394V201.308Z" fill="#363636" stroke="#0A0A0A" stroke-linecap="round" stroke-linejoin="round"/>
<path d="M157.703 194.005H133.568V226.29H157.703V194.005Z" fill="#5C5C5C" stroke="#0A0A0A" stroke-linecap="round" stroke-linejoin="round"/>
<path d="M157.703 201.308H133.568V218.988H157.703V201.308Z" fill="#363636" stroke="#0A0A0A" stroke-linecap="round" stroke-linejoin="round"/>
</svg>
