<svg width="279" height="546" viewBox="0 0 279 546" fill="none" xmlns="http://www.w3.org/2000/svg">
<path d="M133.201 13.4463C133.201 13.4463 120.822 1.44738 111.966 1.00732C103.11 0.567265 79.2302 20.0765 77.9003 28.9803C76.5704 37.8841 88.5102 46.3039 88.5102 46.3039L93.3914 33.8649C93.3914 33.8649 90.7316 43.6489 94.7067 46.7439C98.6817 49.839 104.937 49.8537 104.937 49.8537L105.814 40.5391C105.814 40.5391 108.912 43.6489 110.198 43.6489C111.484 43.6489 115.503 38.3095 119.492 31.65C123.482 24.9904 133.654 16.1013 133.654 16.1013L133.201 13.4463Z" fill="black" stroke="black" stroke-linecap="round" stroke-linejoin="round"/>
<path d="M250.29 201.923C250.291 199.508 250.899 197.132 252.059 195.017C253.219 192.901 254.893 191.114 256.925 189.821V187.577H264.568C268.278 187.696 271.796 189.259 274.378 191.935C276.96 194.611 278.404 198.19 278.404 201.915C278.404 205.641 276.96 209.22 274.378 211.896C271.796 214.572 268.278 216.135 264.568 216.254H256.998V214.01C254.952 212.73 253.262 210.95 252.089 208.836C250.916 206.721 250.297 204.343 250.29 201.923V201.923Z" fill="black" stroke="black" stroke-linecap="round" stroke-linejoin="round"/>
<path d="M256.925 216.254C264.81 216.254 271.203 209.838 271.203 201.923C271.203 194.008 264.81 187.592 256.925 187.592C249.039 187.592 242.646 194.008 242.646 201.923C242.646 209.838 249.039 216.254 256.925 216.254Z" fill="#A1A1A1" stroke="black" stroke-linecap="round" stroke-linejoin="round"/>
<path d="M140.713 103.951C140.713 103.951 160.822 109.203 164.446 122.932C168.07 136.662 166.39 145.141 166.39 148.852C166.39 152.563 173.229 167.818 173.229 175.901C173.177 180.222 173.446 184.542 174.033 188.824C178.048 189.745 181.865 191.385 185.301 193.664C191.731 197.698 199.783 198.916 211.446 201.732C223.108 204.548 230.356 203.756 230.356 203.756C230.356 203.756 235.983 197.302 237.196 197.302C238.409 197.302 248.449 195.278 248.449 195.278C248.449 195.278 254.09 192.051 255.756 193.664C257.422 195.278 260.14 202.539 259.38 204.974C258.62 207.409 248.113 215.066 241.273 217.075C234.434 219.085 223.575 219.906 215.932 219.906C208.289 219.906 199.856 221.931 181.735 221.52C170.145 221.036 158.78 218.149 148.356 213.042C148.356 213.042 137.088 189.22 139.105 176.707C141.122 164.195 149.554 139.963 147.552 133.098C145.55 126.233 140.713 103.951 140.713 103.951Z" fill="white" stroke="black" stroke-linecap="round" stroke-linejoin="round"/>
<path d="M174.091 188.75C174.091 188.75 164.84 184.702 161.23 193.591" stroke="black" stroke-linecap="round" stroke-linejoin="round"/>
<path d="M223.209 203.595L223.487 219.598C229.489 219.359 235.45 218.489 241.272 217.002C248.112 214.992 258.575 207.321 259.379 204.9C259.601 203.052 259.344 201.178 258.634 199.458C254.805 200.016 244.823 201.497 241.272 202.465C238.924 203.07 236.635 203.885 234.433 204.9L230.414 203.683C228.014 203.855 225.604 203.825 223.209 203.595V203.595Z" fill="black" stroke="black" stroke-linecap="round" stroke-linejoin="round"/>
<path d="M237.254 197.258C238.292 197.746 239.198 198.475 239.897 199.386C240.596 200.297 241.068 201.363 241.273 202.495" fill="white"/>
<path d="M237.254 197.258C238.292 197.746 239.198 198.475 239.897 199.386C240.596 200.297 241.068 201.363 241.273 202.495" stroke="black" stroke-linecap="round" stroke-linejoin="round"/>
<path d="M245.307 196.422C246.773 197.474 247.782 199.048 248.129 200.823Z" fill="white"/>
<path d="M245.307 196.422C246.773 197.474 247.782 199.048 248.129 200.823" stroke="black" stroke-linecap="round" stroke-linejoin="round"/>
<path d="M248.507 195.205C248.507 195.205 254.148 195.615 254.952 199.605Z" fill="white"/>
<path d="M248.507 195.205C248.507 195.205 254.148 195.615 254.952 199.605" stroke="black" stroke-linecap="round" stroke-linejoin="round"/>
<path d="M29.5563 302.872C29.5573 300.459 28.9494 298.085 27.7892 295.971C26.629 293.857 24.9543 292.073 22.9214 290.785V288.541H15.2781C7.40104 288.541 1 289.465 1 297.342C1 305.219 7.40104 317.159 15.2781 317.159H22.9214V314.9C24.9431 313.614 26.6103 311.838 27.7697 309.737C28.9291 307.635 29.5434 305.274 29.5563 302.872V302.872Z" fill="#A1A1A1" stroke="black" stroke-linecap="round" stroke-linejoin="round"/>
<path d="M22.9217 317.13C30.8073 317.13 37.1998 310.713 37.1998 302.799C37.1998 294.884 30.8073 288.467 22.9217 288.467C15.0361 288.467 8.64355 294.884 8.64355 302.799C8.64355 310.713 15.0361 317.13 22.9217 317.13Z" fill="#707070" stroke="black" stroke-linecap="round" stroke-linejoin="round"/>
<path d="M150.898 13.901C150.898 13.901 139.397 9.01636 131.432 13.901C123.467 18.7856 115.064 28.5696 113.778 35.2144C112.492 41.8593 112.521 54.6796 109.394 64.0088C106.266 73.338 90.0443 86.5984 84.8124 91.043C79.5805 95.4876 54.2394 97.1011 47.8091 109.613C41.3788 122.126 43.7755 136.252 43.7755 136.252C43.7755 136.252 31.3096 186.315 29.3074 192.784C27.3053 199.253 20.0274 219.026 20.4366 229.529C20.8458 240.032 19.2236 281.206 19.2236 282.82C19.2236 284.433 18.4198 302.197 18.829 306.642C19.2382 311.086 18.4198 315.12 21.2404 315.516C24.0609 315.912 31.7042 317.13 34.9193 316.734C38.1344 316.338 39.742 304.999 38.5436 298.559C37.3453 292.12 32.508 284.023 32.0988 273.535C31.6896 263.047 44.1701 230.732 48.9928 218.219C53.8155 205.707 54.2247 189.146 54.2247 189.146L61.5319 149.175C61.5319 149.175 66.3692 163.315 68.839 169.358C71.3088 175.402 72.0542 191.567 69.6428 200.456C67.2314 209.345 54.3563 234.37 51.5357 248.862C48.7152 263.355 52.7487 308.211 56.373 329.202C59.9974 350.193 68.839 372.401 66.4277 388.962C64.0163 405.522 62.0434 424.328 63.2125 438.835C64.3817 453.342 69.9351 480.083 69.9351 480.083L73.1502 500.839L74.3486 513.351C74.3486 513.351 88.0275 516.578 91.2427 511.327C94.4578 506.075 89.6351 482.092 92.4557 469.169C95.2762 456.246 102.919 435.432 102.919 420.499C102.919 405.566 100.888 385.016 100.888 385.016C100.888 385.016 107.318 342.609 106.515 331.314C105.711 320.019 109.335 293.763 109.335 293.763L113.719 293.352C113.719 293.352 116.131 330.023 115.722 334.541C115.312 339.059 120.559 381.378 121.757 385.016C122.956 388.654 120.953 411.082 124.169 425.222C127.384 439.363 132.616 474.875 134.632 482.547C136.649 490.219 133.346 510.417 133.346 510.417L148.224 512.031C148.224 512.031 154.347 478.484 155.531 473.643C156.715 468.803 166.798 430.21 163.583 414.47C160.368 398.731 157.138 378.943 157.138 376.919C157.138 374.894 168.83 331.696 169.21 309.091C169.59 286.487 171.227 263.472 170.423 253.776C169.619 244.08 149.101 193.21 148.297 188.78C147.493 184.35 146.689 175.857 147.493 172.219C148.297 168.581 157.548 150.011 155.94 138.716C154.332 127.421 145.885 118.18 144.672 114.087C143.459 109.995 141.852 105.198 141.852 105.198C141.852 105.198 132.601 100.798 131.797 99.14C131.299 98.1293 130.884 97.0794 130.555 96.001C130.555 96.001 135.86 101.78 139.85 99.5654C143.839 97.3505 157.621 87.9773 157.621 87.9773C157.621 87.9773 165.147 88.432 166.024 86.2024C166.901 83.9727 162.049 74.2181 166.462 71.9885C170.876 69.7589 175.757 60.4444 176.195 54.2249C176.195 54.2249 182.845 51.5699 181.077 41.3459C179.308 31.1219 160.631 18.771 150.898 13.901Z" fill="white" stroke="black" stroke-linecap="round" stroke-linejoin="round"/>
<path d="M114.305 208.993C114.305 209.364 114.195 209.727 113.989 210.036C113.784 210.345 113.492 210.586 113.15 210.728C112.808 210.87 112.432 210.907 112.069 210.834C111.706 210.762 111.373 210.583 111.111 210.321C110.85 210.058 110.672 209.723 110.599 209.359C110.527 208.995 110.564 208.618 110.706 208.274C110.847 207.931 111.087 207.638 111.395 207.432C111.702 207.226 112.064 207.115 112.434 207.115C112.93 207.115 113.406 207.313 113.757 207.665C114.108 208.017 114.305 208.495 114.305 208.993Z" stroke="black" stroke-linecap="round" stroke-linejoin="round"/>
<path d="M130.614 95.9863L122.211 77.3279L120.604 99.1107L130.614 95.9863Z" fill="black" stroke="black" stroke-linecap="round" stroke-linejoin="round"/>
<path d="M176.182 54.2249C177.229 54.1857 178.274 54.3575 179.254 54.7302C180.235 55.1029 181.131 55.669 181.889 56.3951C182.648 57.1211 183.254 57.9924 183.672 58.9574C184.09 59.9225 184.311 60.9618 184.322 62.0139" stroke="black" stroke-linecap="round" stroke-linejoin="round"/>
<path d="M181.004 41.3459C179.221 31.0779 160.544 18.771 150.84 13.8863C150.84 13.8863 139.339 9.00171 131.374 13.8863C123.409 18.771 115.065 28.5696 113.779 35.2144C112.653 40.8325 114.086 51.5846 111.017 59.6083C113.939 60.9431 118.221 57.0413 121.364 54.2249C125.353 50.6751 129.767 44.4556 131.097 47.5654C132.427 50.6751 140.83 59.1095 145.711 52.45C150.592 45.7905 155.006 44.9104 160.325 48.9002C165.645 52.8901 176.24 54.2249 176.24 54.2249C176.24 54.2249 182.831 51.5699 181.004 41.3459Z" fill="black" stroke="black" stroke-linecap="round" stroke-linejoin="round"/>
<path d="M133.274 53.3448C133.274 53.3448 131.491 41.3459 124.856 43.5755C118.221 45.8051 117.344 60.4444 122.211 60.8991L126.595 61.3391" fill="white"/>
<path d="M133.274 53.3448C133.274 53.3448 131.491 41.3459 124.856 43.5755C118.221 45.8051 117.344 60.4444 122.211 60.8991L126.595 61.3391" stroke="black" stroke-linecap="round" stroke-linejoin="round"/>
<path d="M143.008 80.4376C143.008 80.4376 143.008 86.6571 148.751 88.432" stroke="black" stroke-linecap="round" stroke-linejoin="round"/>
<path d="M150.08 69.7736C150.524 71.0659 151.361 72.1858 152.472 72.9754C153.584 73.7649 154.915 74.1842 156.277 74.1741" stroke="black" stroke-linecap="round" stroke-linejoin="round"/>
<path d="M162.473 69.7736C162.473 69.7736 157.168 64.4489 151.41 64.0089" stroke="black" stroke-linecap="round" stroke-linejoin="round"/>
<path d="M79.9753 93.4633C77.6437 102.147 74.6838 110.648 71.1191 118.899C64.6888 134.242 60.6553 141.107 60.6553 152.402C60.6553 163.696 71.5283 175.871 71.5283 175.871C71.5283 175.871 103.3 172.644 116.979 173.04C126.693 173.488 136.368 174.566 145.944 176.267C145.944 176.267 155.999 161.731 157.197 148.016C158.395 134.301 151.98 122.976 149.554 117.725C147.326 113.366 144.771 109.183 141.911 105.213L137.088 103.189C137.088 103.189 137.892 113.647 134.677 120.982C131.461 128.316 122.985 138.76 109.73 135.929C96.4748 133.098 84.798 119.793 84.3888 110.89C83.9796 101.986 84.798 91.1163 84.798 91.1163L79.9753 93.4633Z" fill="white" stroke="black" stroke-linecap="round" stroke-linejoin="round"/>
<path d="M94.458 101.942L110.943 106.386" stroke="black" stroke-linecap="round" stroke-linejoin="round"/>
<path d="M122.21 105.976L133.872 104.773" stroke="black" stroke-linecap="round" stroke-linejoin="round"/>
<path d="M170.482 253.747C170.161 249.992 166.873 240.017 162.927 228.957C151.031 233.592 129.621 240.589 111.353 239.225C90.0893 237.641 66.8234 231.524 57.9526 228.957C55.1891 235.385 52.9981 242.046 51.4054 248.862C49.4617 258.925 50.7916 283.524 52.9983 304.603L59.4578 305.718C70.9739 307.698 98.1126 308.329 107.597 308.49C108.401 300.363 109.336 293.601 109.336 293.601L113.721 293.191C113.721 293.191 114.174 300.275 114.671 308.593C120.721 308.593 133.289 308.593 146.296 307.727C154.356 306.957 162.2 304.667 169.416 300.98C170.015 281.236 171.184 262.299 170.482 253.747Z" fill="black" stroke="black" stroke-linecap="round" stroke-linejoin="round"/>
<path d="M37.7842 184.306C37.7842 184.306 40.9993 194.794 44.2145 195.615C47.4296 196.437 51.0539 192.373 52.983 187.533" stroke="black" stroke-linecap="round" stroke-linejoin="round"/>
<path d="M212.761 208.304C212.76 205.89 213.368 203.516 214.528 201.403C215.688 199.289 217.363 197.505 219.396 196.217V193.972H227.039C230.826 193.972 234.457 195.482 237.135 198.17C239.813 200.858 241.317 204.503 241.317 208.304C241.317 212.104 239.813 215.75 237.135 218.437C234.457 221.125 230.826 222.635 227.039 222.635H219.396V220.405C217.363 219.112 215.69 217.325 214.53 215.21C213.37 213.094 212.761 210.718 212.761 208.304V208.304Z" fill="black" stroke="black" stroke-linecap="round" stroke-linejoin="round"/>
<path d="M219.396 222.635C227.282 222.635 233.674 216.219 233.674 208.304C233.674 200.389 227.282 193.972 219.396 193.972C211.511 193.972 205.118 200.389 205.118 208.304C205.118 216.219 211.511 222.635 219.396 222.635Z" fill="#A1A1A1" stroke="black" stroke-linecap="round" stroke-linejoin="round"/>
<path d="M21.2399 315.516C24.0605 315.927 31.7037 317.13 34.9189 316.734C38.134 316.338 39.7416 304.999 38.5432 298.559C37.7272 295.201 36.6822 291.902 35.4157 288.687C29.9939 290.403 23.169 289.817 19.0186 289.171C18.814 295.229 18.5655 303.752 18.8286 306.642C19.2232 311.086 18.4194 315.12 21.2399 315.516Z" fill="black" stroke="black" stroke-linecap="round" stroke-linejoin="round"/>
<path d="M72.4489 510.417C72.4489 510.417 67.3632 497.758 69.7891 496.541C72.2151 495.323 84.0819 494.839 85.7917 497.274C87.5016 499.709 87.2532 507.014 87.2532 507.014C87.2532 507.014 95.7441 503.846 96.4602 507.014C96.8388 509.09 96.4984 511.233 95.4956 513.087C95.4956 513.087 96.2263 530.851 95.2472 532.552C94.268 534.254 89.6791 535.721 89.6791 535.721C86.7126 538.026 83.5484 540.063 80.2237 541.808C75.3718 544.243 67.8601 545.211 62.5258 544.962C57.1916 544.713 47.7362 543.994 47.9116 539.857C48.087 535.721 48.8761 530.117 53.7573 526.48C58.6385 522.842 72.4489 510.417 72.4489 510.417Z" fill="white" stroke="black" stroke-linecap="round" stroke-linejoin="round"/>
<path d="M87.2391 531.1C82.8549 533.77 79.7274 539.124 66.1508 540.107C56.6807 540.781 50.8789 538.508 48.2337 537.056C48.1021 538.038 48.0145 538.977 47.9706 539.857C47.7222 543.994 57.1776 544.727 62.5849 544.962C67.9922 545.197 75.4308 544.243 80.2828 541.808C83.6075 540.063 86.7716 538.026 89.7382 535.721C89.7382 535.721 94.3417 534.254 95.3062 532.552C95.7137 530.878 95.8762 529.154 95.7885 527.433C92.8168 528.347 89.9508 529.576 87.2391 531.1V531.1Z" fill="white" stroke="black" stroke-linecap="round" stroke-linejoin="round"/>
<path d="M73.662 510.417L83.3659 510.902C83.0074 512.609 82.3036 514.224 81.2981 515.647C80.2926 517.07 79.0068 518.271 77.5202 519.175C72.6683 521.844 68.547 520.641 69.2777 516.989C70.0442 514.404 71.5728 512.113 73.662 510.417V510.417Z" fill="white" stroke="black" stroke-linecap="round" stroke-linejoin="round"/>
<path d="M152.214 510.417C152.214 510.417 157.3 497.758 154.874 496.541C152.448 495.323 140.566 494.839 138.798 497.274C137.03 499.709 137.337 507.014 137.337 507.014C137.337 507.014 128.846 503.846 128.115 507.014C127.745 509.091 128.091 511.233 129.094 513.087C129.094 513.087 128.363 530.851 129.328 532.552C130.292 534.254 134.911 535.721 134.911 535.721C137.877 538.026 141.041 540.063 144.366 541.808C149.218 544.243 156.73 545.211 162.064 544.962C167.398 544.713 176.853 543.994 176.678 539.857C176.503 535.721 175.714 530.117 170.832 526.48C165.951 522.842 152.214 510.417 152.214 510.417Z" fill="white" stroke="black" stroke-linecap="round" stroke-linejoin="round"/>
<path d="M137.424 531.1C141.809 533.77 144.936 539.124 158.513 540.107C167.968 540.781 173.77 538.508 176.43 537.056C176.561 538.038 176.634 538.977 176.693 539.857C176.941 543.994 167.486 544.727 162.079 544.962C156.671 545.197 149.233 544.243 144.381 541.808C141.056 540.063 137.892 538.026 134.925 535.721C134.925 535.721 130.322 534.254 129.343 532.552C128.951 530.876 128.788 529.153 128.86 527.433C131.837 528.347 134.707 529.576 137.424 531.1Z" fill="white" stroke="black" stroke-linecap="round" stroke-linejoin="round"/>
<path d="M151.001 510.417L141.297 510.902C141.652 512.61 142.354 514.226 143.36 515.65C144.366 517.073 145.654 518.273 147.143 519.175C151.995 521.844 156.116 520.641 155.385 516.989C154.613 514.407 153.085 512.118 151.001 510.417V510.417Z" fill="white" stroke="black" stroke-linecap="round" stroke-linejoin="round"/>
<path d="M57.44 302.872C57.4411 300.459 56.8332 298.085 55.673 295.971C54.5128 293.857 52.8381 292.073 50.8052 290.785V288.541H43.1619C39.3751 288.541 35.7434 290.051 33.0658 292.738C30.3881 295.426 28.8838 299.071 28.8838 302.872C28.8838 306.673 30.3881 310.318 33.0658 313.006C35.7434 315.693 39.3751 317.203 43.1619 317.203H50.8052V314.9C52.8269 313.614 54.4941 311.838 55.6535 309.737C56.8129 307.635 57.4272 305.274 57.44 302.872V302.872Z" fill="#A1A1A1" stroke="black" stroke-linecap="round" stroke-linejoin="round"/>
<path d="M50.8055 317.13C58.6911 317.13 65.0836 310.713 65.0836 302.799C65.0836 294.884 58.6911 288.467 50.8055 288.467C42.9199 288.467 36.5273 294.884 36.5273 302.799C36.5273 310.713 42.9199 317.13 50.8055 317.13Z" fill="black" stroke="black" stroke-linecap="round" stroke-linejoin="round"/>
</svg>
