<svg width="240" height="545" viewBox="0 0 240 545" fill="none" xmlns="http://www.w3.org/2000/svg">
<path d="M54.0332 487.547C51.708 488.37 49.7351 489.965 48.443 492.067C47.1508 494.168 46.6175 496.648 46.9316 499.095C47.4713 508.333 37.4558 533.739 47.5361 539.351C58.9762 545.719 78.5324 545.244 80.0433 539.761C81.5543 534.279 75.3809 525.645 75.9421 518.867C76.5034 512.089 81.6407 489.835 73.4167 487.806C65.1928 485.777 54.0332 487.547 54.0332 487.547Z" fill="white" stroke="black" stroke-linecap="round" stroke-linejoin="round"/>
<path d="M51.9419 493.267C53.1587 494.398 53.9254 495.932 54.1005 497.584C54.748 502.678 56.259 490.655 64.893 491.885C73.5271 493.116 70.4404 499.786 71.8866 500.347C72.6637 500.649 72.8364 498.188 73.3545 495.728C73.5272 483.834 74.1531 461.191 76.3764 451.543C79.4415 438.009 83.1541 413.812 81.3193 405.545C81.3193 405.545 96.6233 388.665 98.2637 330.105L54.6185 329.565L53.8846 388.708C53.8846 388.708 41.5595 404.077 46.0276 434.685C49.2006 456.702 51.1217 481.287 51.9419 493.267Z" fill="white" stroke="black" stroke-linecap="round" stroke-linejoin="round"/>
<path d="M79.7218 534.106C79.7218 534.106 71.3036 526.508 63.3818 526.767" stroke="black" stroke-linecap="round" stroke-linejoin="round"/>
<path d="M112.338 417.006C108.125 425.25 107.349 434.828 110.179 443.642C114.842 459.227 107.352 477.078 117.454 483.51C127.555 489.943 155.228 486.878 147.284 463.501C139.341 440.124 142.32 425.144 132.995 419.683C123.67 414.222 112.338 417.006 112.338 417.006Z" fill="white" stroke="black" stroke-linecap="round" stroke-linejoin="round"/>
<path d="M160.472 274.069L126.41 276.595L105.948 292.287C105.948 292.287 104.545 320.132 113.524 338.566L118.618 356.46C115.987 363.423 114.961 370.89 115.618 378.304C116.417 391.406 119.697 401.638 115.618 412.732C114.062 417.028 113.415 421.6 113.718 426.158C114.273 426.922 114.689 427.777 114.949 428.684C116.697 434.339 119.741 422.899 127.188 423.741C134.634 424.583 130.987 430.368 132.67 430.454C136.987 417.611 157.515 355.337 149.032 339.084C149.032 339.084 162.846 324.082 166.516 305.756C168.697 294.81 166.529 283.444 160.472 274.069V274.069Z" fill="white" stroke="black" stroke-linecap="round" stroke-linejoin="round"/>
<path d="M147.433 48.0509C147.433 48.0509 160.147 32.5959 148.858 23.0553C148.858 23.0553 142.383 -5.76091 122.481 1.03842C102.579 7.83775 104.954 12.8455 104.954 12.8455C104.954 12.8455 82.678 13.601 84.5127 25.6455C86.3474 37.69 90.535 36.6971 90.535 36.6971C90.535 36.6971 84.4911 39.4816 86.7144 48.6553C88.9376 57.829 98.8884 57.0735 98.8884 57.0735L147.433 48.0509Z" fill="black"/>
<path d="M181.69 128.866C187.192 132 192.498 135.467 197.577 139.248C197.577 139.248 196.757 146.501 208.585 159.387C220.414 172.274 225.853 196.687 225.853 196.687C219.831 207.263 221.061 208.515 220.587 216.502C220.112 224.488 217.802 229.323 219.443 234.806C221.083 240.289 226.436 237.073 226.436 237.073C233.71 237.073 238.027 223.431 238.027 223.431C238.027 223.431 241.783 202.709 235.588 174.627C231.97 157.984 226.308 141.853 218.73 126.6C218.73 126.6 205.995 111.49 201.16 106.914C195.31 101.496 175.819 87.4872 175.819 87.4872L170.271 125.758C174.138 126.557 177.952 127.595 181.69 128.866V128.866Z" fill="white" stroke="black" stroke-linecap="round" stroke-linejoin="round"/>
<path d="M178.214 130.075L177.631 133.205C180.91 127.107 183.46 120.644 185.229 113.951C187.196 106.534 186.704 98.6795 183.826 91.5668C182.488 88.588 178.71 84.1199 175.969 87.8109C178.291 97.0318 179.408 106.515 179.293 116.023C179.224 120.725 178.864 125.418 178.214 130.075V130.075Z" fill="white" stroke="black" stroke-linecap="round" stroke-linejoin="round"/>
<path d="M176.682 134.931L177.61 133.118L178.214 130.074C178.864 125.417 179.225 120.724 179.294 116.022C179.446 106.482 178.358 96.9623 176.056 87.7026C176.054 87.7458 176.054 87.789 176.056 87.8321C174.243 90.4439 177.502 98.2794 177.89 100.999C178.595 106.727 178.769 112.508 178.409 118.267C177.998 122.671 178.711 130.959 176.682 134.931Z" fill="white" stroke="black" stroke-linecap="round" stroke-linejoin="round"/>
<path d="M202.646 139.291C202.646 139.291 210.633 141.687 214.389 131.672" stroke="black" stroke-linecap="round" stroke-linejoin="round"/>
<path d="M230.364 208.105C228.911 211.081 227.893 214.25 227.342 217.516C226.544 222.589 225.076 227.92 220.37 223.992" stroke="black" stroke-linecap="round" stroke-linejoin="round"/>
<path d="M61.2021 264.097C61.2021 264.097 50.2584 285.682 50.1289 334.745C50.1289 334.745 66.5337 341.739 82.1181 335.155C97.7026 328.572 102.969 335.911 102.969 335.911L105.603 319.441C105.603 319.441 104.113 283.049 135.606 285.876C167.099 288.704 162.847 317.261 162.847 317.261C162.847 317.261 177.956 277.199 166.473 260.082C154.99 242.965 61.2021 264.097 61.2021 264.097Z" fill="black" stroke="black" stroke-linecap="round" stroke-linejoin="round"/>
<path d="M104.089 286.07C101.931 291.726 100.506 300.425 101.801 313.57" stroke="#7F7F7F" stroke-linecap="round" stroke-linejoin="round"/>
<path d="M110.805 276.401C109.569 277.204 108.5 278.237 107.653 279.444" stroke="#7F7F7F" stroke-linecap="round" stroke-linejoin="round"/>
<path d="M176.054 87.7029C176.046 87.6601 176.046 87.6161 176.054 87.5734C122.199 65.4054 76.9136 92.3221 62.3652 102.683C68.3443 103.935 74.4098 109.159 77.9929 117.296C85.5046 134.413 80.7558 145.163 76.4604 158.308C77.9449 146.055 75.0553 133.671 68.3012 123.34C65.97 119.843 62.6459 116.346 58.6958 115.656L65.4304 168.065L55.458 268.328C55.458 268.328 59.6024 284.862 107.802 268.975C156.002 253.089 170.831 269.774 170.831 269.774L165.586 223.128C164.492 213.455 164.826 203.673 166.579 194.096L177.738 133.053L178.213 130.075C178.863 125.417 179.223 120.724 179.292 116.023C179.445 106.482 178.356 96.9626 176.054 87.7029Z" fill="white" stroke="black" stroke-linecap="round" stroke-linejoin="round"/>
<path opacity="0.7" d="M109.467 257.254C112.251 249.678 119.094 244.174 126.562 241.109C134.216 238.404 142.205 236.763 150.306 236.23C139.302 231.185 127.287 228.734 115.187 229.064C112.186 229.064 108.711 229.258 106.66 227.121C105.713 225.935 105.167 224.478 105.101 222.961C105.035 221.444 105.453 219.946 106.294 218.682C108.027 216.202 110.227 214.083 112.769 212.443C131.006 198.633 145.309 180.289 154.256 159.236C142.268 177.767 126.071 193.203 106.984 204.284C111.057 193.938 115.143 183.584 119.245 173.223L86.025 203.766C85.6991 204.157 85.2939 204.475 84.8363 204.698C84.3787 204.921 83.8789 205.045 83.37 205.061C81.7727 204.845 81.2115 202.773 81.2115 201.154C80.8658 186.652 83.3286 172.22 88.4642 158.653C89.5593 156.364 90.1061 153.851 90.0615 151.314C90.0032 150.047 89.4722 148.848 88.5731 147.953C87.6741 147.058 86.4723 146.532 85.2048 146.479C88.1713 141.631 89.7953 136.081 89.9104 130.398L82.8952 135.255C82.8952 142.4 80.7367 148.746 78.3839 155.61C78.0385 156.631 77.6931 157.667 77.3478 158.718C77.2634 158.97 77.089 159.182 76.858 159.313C76.627 159.445 76.3556 159.487 76.0958 159.43C75.9831 159.4 75.8744 159.357 75.7721 159.301C75.7721 159.862 75.6641 160.423 75.5994 160.984C74.1747 172.166 70.7427 182.958 67.7855 193.837C65.0082 204.126 62.6555 214.516 60.7272 225.006L56.4102 267.874C56.5797 268.39 56.7816 268.895 57.0145 269.385C57.1441 269.601 57.2952 269.752 57.4247 269.968C58.3086 270.947 59.3614 271.758 60.5329 272.364C66.3825 275.472 79.2257 277.264 107.286 268.047C123.799 262.586 136.448 260.924 145.967 261.096L146.658 260.945C134.475 258.097 121.972 256.856 109.467 257.254V257.254Z" fill="white"/>
<path d="M155.182 157.747C147.161 176.513 135.137 193.301 119.952 206.936C104.766 220.571 86.7846 230.724 67.2656 236.684" stroke="black" stroke-linecap="round" stroke-linejoin="round"/>
<path d="M150.844 234.288C123.601 227.371 94.7668 230.673 69.792 243.569" stroke="black" stroke-linecap="round" stroke-linejoin="round"/>
<path d="M91.3993 119.282C92.0899 125.595 91.4037 131.982 89.3877 138.004C87.3717 144.026 84.0739 149.539 79.7217 154.164" stroke="black" stroke-linecap="round" stroke-linejoin="round"/>
<path d="M159.823 104.647C166.755 114.802 170.285 126.895 169.903 139.184" stroke="black" stroke-linecap="round" stroke-linejoin="round"/>
<path d="M102.966 75.378C102.966 75.378 101.261 103.439 118.745 103.676C141.043 103.957 140.114 78.4863 140.114 78.4863L102.966 75.378Z" fill="white" stroke="black" stroke-linecap="round" stroke-linejoin="round"/>
<path d="M100.616 46.3456C100.616 46.3456 99.4503 71.1686 103.357 77.7089C107.264 84.2492 118.186 93.7682 126.756 93.8762C135.325 93.9841 146.182 82.2633 146.787 77.5794C147.391 72.8954 147.24 41.7912 147.24 41.7912C147.24 41.7912 146.29 17.3999 127.813 17.1625C109.336 16.925 100.637 31.5814 100.616 46.3456Z" fill="white" stroke="black" stroke-linecap="round" stroke-linejoin="round"/>
<path d="M147.283 48.8062C147.829 48.4426 148.449 48.2037 149.098 48.1067C149.747 48.0097 150.41 48.057 151.039 48.245C153.91 49.2163 155.075 53.4039 153.629 57.5698C153.253 59.0865 152.438 60.4585 151.286 61.5144C150.135 62.5702 148.697 63.2629 147.153 63.5057C147.283 58.4332 147.283 52.9722 147.283 48.8062Z" fill="white" stroke="black" stroke-linecap="round" stroke-linejoin="round"/>
<path d="M118.078 48.7417C118.078 50.231 117.279 51.4398 116.308 51.4182C115.337 51.3966 114.603 50.1879 114.624 48.6985C114.646 47.2091 115.423 45.9788 116.394 46.0003C117.366 46.0219 118.1 47.2307 118.078 48.7417Z" fill="black"/>
<path d="M137.677 48.5473C137.677 50.0582 136.857 51.267 135.907 51.2454C134.958 51.2238 134.202 50.0151 134.202 48.5041C134.202 46.9932 135.022 45.806 135.972 45.806C136.922 45.806 137.699 47.0579 137.677 48.5473Z" fill="black"/>
<path d="M131.439 42.8274C131.439 42.8274 137.203 37.8628 141.628 40.2803" stroke="black" stroke-linecap="round" stroke-linejoin="round"/>
<path d="M121.898 42.7193C121.898 42.7193 116.286 37.5821 111.774 39.8917" stroke="black" stroke-linecap="round" stroke-linejoin="round"/>
<path d="M79.6547 144.666C75.7478 159.927 71.1933 182.743 71.1933 182.743L88.8284 167.633C88.8284 167.633 95.8436 148.854 102.103 143.285C104.499 141.126 106.766 128.952 110.025 130.442C113.284 131.931 111.169 139.507 111.169 139.507C113.46 140 115.694 140.723 117.839 141.666C119.997 142.767 125.264 163.1 122.696 164.892C120.127 166.683 117.299 159.733 115.745 167.719C114.191 175.706 100.269 182.829 100.269 182.829C100.269 182.829 76.5249 215.207 66.3367 220.581C56.1485 225.956 45.14 228.676 42.226 200.27C40.6461 181.885 41.9866 163.366 46.1977 145.4C46.1977 145.4 40.1107 114.296 57.3572 106.547C74.6038 98.7978 83.9502 127.916 79.6547 144.666Z" fill="white" stroke="black" stroke-linecap="round" stroke-linejoin="round"/>
<path d="M60.1416 192.801L72.2725 181.534" stroke="black" stroke-linecap="round" stroke-linejoin="round"/>
<path d="M101.286 144.472L111.69 139.572" stroke="black" stroke-linecap="round" stroke-linejoin="round"/>
<path d="M52.459 147.774C52.459 147.774 56.258 154.077 62.5177 154.941" stroke="black" stroke-linecap="round" stroke-linejoin="round"/>
<path d="M99.2123 183.714C100.097 184.297 99.6872 185.613 99.0828 186.455C97.9726 188.031 96.7764 189.544 95.4996 190.988C94.1398 192.499 93.4491 193.147 92.1756 192.995C90.902 192.844 87.4052 190.535 82.1384 182.98C80.4548 180.562 78.7711 173.741 81.2319 171.216C83.6926 168.691 91.0531 163.963 89.132 165.971C85.3978 169.921 87.5563 176.267 99.2123 183.714Z" fill="black" stroke="black" stroke-linecap="round" stroke-linejoin="round"/>
<path d="M82.958 184.21C80.7755 181.864 78.9959 179.172 77.6912 176.245C76.4609 174.087 77.8207 172.77 79.1806 171.367L81.9651 168.841C84.1236 167.05 85.4619 166.985 86.1526 168.841L86.6707 170.007C87.7462 172.226 89.208 174.236 90.9877 175.943L91.8296 176.85C92.0491 177.115 92.212 177.422 92.3084 177.753C92.4049 178.083 92.4327 178.43 92.3903 178.771C92.3478 179.113 92.236 179.442 92.0616 179.739C91.8872 180.036 91.654 180.294 91.3762 180.497L86.498 185.138C86.2087 185.325 85.8838 185.449 85.544 185.503C85.2041 185.557 84.8568 185.54 84.5239 185.453C84.191 185.365 83.8799 185.21 83.6103 184.996C83.3408 184.782 83.1186 184.514 82.958 184.21Z" fill="white" stroke="black" stroke-linecap="round" stroke-linejoin="round"/>
<path d="M80.8641 181.879L79.4179 182.462L77.5615 179.699L78.7487 178.533C78.7487 178.533 79.8064 180.217 80.8641 181.879Z" fill="white" stroke="black" stroke-linecap="round" stroke-linejoin="round"/>
<path d="M130.726 43.1511C130.726 43.1511 130.402 55.2604 133.165 60.1603C134.74 62.9232 131.308 65.1464 129.733 65.5997C128.157 66.053 122.264 63.7218 122.847 60.6999" stroke="black" stroke-width="0.75" stroke-linecap="round" stroke-linejoin="round"/>
<path d="M147.237 41.7913L139.553 25.8182L130.724 27.2644L114.967 24.4584L108.189 31.1713L104.693 32.7902L100.527 48.5042L96.2744 36.3302L98.1092 22.9474L115.118 12.6944L129.559 8.44214L143.891 19.0621L148.77 30.8907L150.863 36.395L147.237 41.7913Z" fill="black"/>
<path d="M101.587 67.1108C102.251 63.453 104.157 60.1365 106.983 57.7212C105.182 55.4253 104.311 52.5355 104.544 49.6268C104.789 46.7521 104.753 43.8604 104.436 40.9927C104.364 40.2905 104.051 39.6348 103.551 39.1364C102.407 38.1866 100.551 39.1364 100.033 40.5178C99.1048 43.0217 100.335 48.9576 100.292 51.7421C100.205 56.8955 100.639 62.0445 101.587 67.1108V67.1108Z" fill="black"/>
<path d="M109.378 62.8799C109.659 67.0243 110.5 67.8445 114.04 70.003C115.828 71.0713 117.843 71.7023 119.921 71.8449C121.999 71.9874 124.081 71.6374 125.999 70.8233C127.043 70.2196 128.207 69.8512 129.409 69.744C130.772 70.0464 132.091 70.5177 133.337 71.147C134.738 71.4298 136.193 71.2552 137.487 70.649C138.781 70.0428 139.846 69.037 140.525 67.7798C141.826 65.8734 142.504 63.6115 142.468 61.3042C140.936 64.9089 135.733 64.4341 132.668 61.9949C134.115 63.139 127.941 64.8658 127.358 64.8226C125.2 64.6715 123.905 63.6138 121.595 63.7002C116.285 63.9376 113.177 67.715 109.378 62.8799Z" fill="black"/>
<path d="M95.3038 46.6913C96.2589 46.4743 97.2559 46.5315 98.18 46.856C99.1041 47.1806 99.9178 47.7595 100.527 48.526C100.527 51.2889 100.376 56.4046 100.527 61.6714C100.381 61.7717 100.221 61.8515 100.053 61.9088C97.1601 62.8154 93.7497 60.1604 92.433 55.9513C91.1163 51.7422 92.4329 47.5979 95.3038 46.6913Z" fill="white" stroke="black" stroke-linecap="round" stroke-linejoin="round"/>
<path d="M103.359 77.7088C107.244 84.1844 118.188 93.7682 126.757 93.8761C130.685 93.8761 135.067 91.4801 138.758 88.3719C137.629 92.8026 135.147 96.7712 131.657 99.7257C130.079 100.401 128.386 100.768 126.671 100.805C118.209 100.697 107.46 91.4154 103.445 84.8967C103.077 82.2074 102.904 79.4949 102.927 76.7806C103.054 77.0978 103.198 77.4076 103.359 77.7088V77.7088Z" fill="black"/>
<path d="M6.7843 484.719C2.94213 485.021 0.503009 489.511 1.08581 493.353C1.99814 497.144 4.16631 500.514 7.23757 502.915C8.96331 504.717 11.1513 506.008 13.562 506.65C14.7746 506.921 16.0437 506.764 17.1535 506.205C18.2632 505.646 19.1451 504.72 19.649 503.584C20.8609 504.571 22.3511 505.154 23.9108 505.252C25.4704 505.349 27.0216 504.956 28.3469 504.128C29.6723 503.3 30.7054 502.078 31.3016 500.634C31.8979 499.189 32.0274 497.595 31.672 496.073C32.9173 495.534 34.0179 494.709 34.8848 493.665C35.7516 492.621 36.3602 491.388 36.6612 490.065C36.9623 488.742 36.9472 487.366 36.6173 486.05C36.2875 484.734 35.652 483.514 34.7625 482.489C33.8731 481.465 32.7546 480.664 31.4979 480.152C30.2411 479.641 28.8815 479.432 27.5293 479.545C26.177 479.657 24.8702 480.086 23.7149 480.797C22.5595 481.509 21.5881 482.483 20.8794 483.64C25.3476 476.387 5.18699 474.552 6.7843 484.719Z" fill="white" stroke="black" stroke-linecap="round" stroke-linejoin="round"/>
<path d="M190.537 42.633C187.515 39.6542 181.148 40.237 177.586 42.525C175.818 43.7174 174.489 45.4563 173.803 47.4756C173.117 49.4949 173.111 51.6834 173.787 53.7062C173.008 53.5813 172.208 53.7113 171.508 54.0768C170.808 54.4424 170.245 55.0239 169.902 55.7352C169.577 56.4763 169.512 57.3051 169.715 58.0881C169.919 58.8712 170.38 59.563 171.024 60.0522C169.75 60.3901 168.598 61.0833 167.703 62.051C166.808 63.0188 166.207 64.2211 165.969 65.5177C165.732 66.8143 165.868 68.1517 166.361 69.374C166.855 70.5962 167.686 71.6528 168.758 72.4205L163.297 74.3416C164.128 75.1743 165.192 75.7341 166.349 75.9462C167.506 76.1583 168.7 76.0127 169.772 75.5288C169.771 76.1676 169.963 76.7919 170.322 77.32C170.682 77.8482 171.192 78.2555 171.787 78.4887C172.382 78.722 173.033 78.7703 173.656 78.6273C174.278 78.4843 174.843 78.1566 175.277 77.6873C175.651 78.0575 176.121 78.3159 176.634 78.4333C177.147 78.5508 177.683 78.5227 178.181 78.3522C178.679 78.1817 179.12 77.8756 179.453 77.4683C179.787 77.061 180 76.5687 180.069 76.0468C181.196 77.7555 182.905 78.9973 184.879 79.5421C186.852 80.0869 188.956 79.8977 190.801 79.0097C192.645 78.1216 194.105 76.5949 194.91 74.7125C195.715 72.8302 195.81 70.7198 195.178 68.7726C198.438 67.2401 200.208 65.8586 199.949 60.9588C199.69 56.0589 193.581 53.3392 193.667 53.145C195.092 49.9072 193.43 45.4391 190.537 42.633Z" fill="white" stroke="black" stroke-linecap="round" stroke-linejoin="round"/>
<path d="M107.264 147.688C110.976 144.752 115.531 143.155 120.452 147.688" stroke="black" stroke-linecap="round" stroke-linejoin="round"/>
<path d="M109.141 153.948C112.465 151.077 117.062 149.631 121.682 154.185" stroke="black" stroke-linecap="round" stroke-linejoin="round"/>
<path d="M111.172 160.078C114.215 157.596 120.41 156.236 122.979 160.337" stroke="black" stroke-linecap="round" stroke-linejoin="round"/>
<path d="M229.867 215.422L227.061 217.732" stroke="black" stroke-linecap="round" stroke-linejoin="round"/>
<path d="M219.612 231.827C223.713 231.611 228.505 230.143 230.405 226.496C231.461 224.898 232.323 223.181 232.974 221.38" stroke="black" stroke-linecap="round" stroke-linejoin="round"/>
<path d="M219.893 235.691C226.606 234.827 232.412 231.806 234.786 225.481" stroke="black" stroke-linecap="round" stroke-linejoin="round"/>
<path d="M118.401 325.917C119.527 326.797 120.46 327.898 121.143 329.153C121.827 330.408 122.245 331.79 122.373 333.213C122.603 336.064 123.124 338.885 123.927 341.631C124.356 342.995 125.187 344.197 126.312 345.079C127.437 345.962 128.803 346.483 130.23 346.574" stroke="black" stroke-linecap="round" stroke-linejoin="round"/>
<path d="M59.215 389.939C58.2253 391.264 57.5905 392.82 57.3705 394.459C57.1505 396.098 57.3527 397.766 57.958 399.306C58.5633 400.845 59.5516 402.204 60.8293 403.254C62.1069 404.305 63.6317 405.011 65.2589 405.307" stroke="black" stroke-linecap="round" stroke-linejoin="round"/>
<path d="M58.6967 407.854C58.3297 409.001 58.254 410.221 58.4763 411.404C58.6986 412.587 59.2121 413.697 59.9702 414.632" stroke="black" stroke-linecap="round" stroke-linejoin="round"/>
<path d="M149.16 337.077C149.16 337.077 145.555 346.25 140.008 347.632" stroke="black" stroke-linecap="round" stroke-linejoin="round"/>
<path d="M79.9143 396.22C79.9143 396.22 78.2522 412.69 68.9922 416.467" stroke="black" stroke-linecap="round" stroke-linejoin="round"/>
</svg>
