<svg width="326" height="527" viewBox="0 0 326 527" fill="none" xmlns="http://www.w3.org/2000/svg">
<path d="M307.582 423.201L279.541 431.382L294.752 472.624L322.793 464.444C326.004 463.341 325.202 453.217 320.997 441.82C316.793 430.436 310.793 422.098 307.582 423.201Z" fill="white" stroke="black" stroke-linecap="round" stroke-linejoin="round"/>
<path d="M292.969 450.014C297.173 461.398 297.976 471.534 294.765 472.637C291.554 473.74 285.54 465.403 281.35 454.018C277.145 442.634 276.343 432.498 279.554 431.395C282.765 430.292 288.778 438.63 292.969 450.014Z" fill="black" stroke="black" stroke-linecap="round" stroke-linejoin="round"/>
<path d="M193.306 305.828L197.851 329.923C197.851 329.923 213.742 352.927 222.069 371.546C230.395 390.165 252.341 414.273 256.505 417.555C260.668 420.838 272.777 427.784 275.797 432.524C278.818 437.264 285.253 452.246 285.253 452.246L254.232 463.932C254.232 463.932 248.178 457.721 245.157 448.963C242.137 440.205 240.246 433.259 240.246 433.259C240.246 433.259 210.354 411.712 200.517 404.779C190.68 397.846 187.66 394.196 187.66 394.196C187.66 394.196 176.694 344.904 174.803 332.483C172.911 320.062 184.639 307.286 193.347 305.828H193.306Z" fill="white" stroke="black" stroke-linecap="round" stroke-linejoin="round"/>
<path d="M283.855 444.84C283.855 444.84 290.453 458.903 289.909 460.755C289.365 462.606 284.412 463.932 282.208 463.407C280.004 462.882 276.439 448.281 276.439 447.493C276.439 446.705 280.834 442.451 283.868 444.84H283.855Z" fill="white" stroke="black" stroke-linecap="round" stroke-linejoin="round"/>
<path d="M274.778 448.018C274.778 448.018 281.377 462.081 280.819 463.932C280.275 465.784 275.323 467.11 273.118 466.585C270.914 466.059 267.35 451.458 267.35 450.67C267.35 449.883 271.744 445.628 274.778 448.018Z" fill="white" stroke="black" stroke-linecap="round" stroke-linejoin="round"/>
<path d="M266.246 451.143C266.246 451.143 272.26 463.971 271.757 465.652C271.253 467.346 266.75 468.554 264.736 468.068C262.736 467.582 259.471 454.281 259.471 453.546C259.471 452.811 263.484 448.95 266.233 451.13L266.246 451.143Z" fill="white" stroke="black" stroke-linecap="round" stroke-linejoin="round"/>
<path d="M259.023 454.006C259.023 454.006 264.479 465.639 264.03 467.189C263.581 468.725 259.485 469.828 257.662 469.381C255.839 468.935 252.887 456.868 252.887 456.212C252.887 455.555 256.533 452.036 259.037 454.019L259.023 454.006Z" fill="white" stroke="black" stroke-linecap="round" stroke-linejoin="round"/>
<path d="M256.367 424.41C256.367 424.41 259.388 423.083 263.51 423.346C267.633 423.609 279.184 426.799 280.83 428.913C282.476 431.04 286.599 445.628 284.953 446.692C283.306 447.756 266.259 453.861 263.782 454.649C261.306 455.45 260.762 450.67 262.136 448.543C263.51 446.416 267.088 444.565 267.088 444.565C267.088 444.565 259.946 444.04 257.197 439.785" fill="white"/>
<path d="M256.367 424.41C256.367 424.41 259.388 423.083 263.51 423.346C267.633 423.609 279.184 426.799 280.83 428.913C282.476 431.04 286.599 445.628 284.953 446.692C283.306 447.756 266.259 453.861 263.782 454.649C261.306 455.45 260.762 450.67 262.136 448.543C263.51 446.416 267.088 444.565 267.088 444.565C267.088 444.565 259.946 444.04 257.197 439.785" stroke="black" stroke-linecap="round" stroke-linejoin="round"/>
<path d="M278.353 440.862C273.687 440.061 267.088 444.578 267.088 444.578C267.088 444.578 271.21 437.409 274.231 436.358" stroke="black" stroke-linecap="round" stroke-linejoin="round"/>
<path d="M241.715 441.19L213.674 449.37L228.885 490.613L256.926 482.433C260.137 481.33 259.334 471.206 255.13 459.809C250.926 448.412 244.926 440.087 241.715 441.19Z" fill="white" stroke="black" stroke-linecap="round" stroke-linejoin="round"/>
<path d="M227.09 468.002C231.294 479.386 232.097 489.523 228.886 490.626C225.675 491.729 219.661 483.391 215.47 472.007C211.28 460.623 210.464 450.486 213.675 449.383C216.885 448.28 222.899 456.618 227.09 468.002Z" fill="black" stroke="black" stroke-linecap="round" stroke-linejoin="round"/>
<path d="M231.239 525.724L205.035 451.879C205.035 451.879 202.014 427.049 200.49 408.797C198.98 390.546 188.762 370.089 188.762 370.089C188.762 370.089 171.361 386.161 138.068 392.358C104.775 398.569 62.0256 378.112 53.3179 373.371L44.6103 368.631C44.6103 368.631 13.2084 419.013 13.5894 458.089C13.9703 497.152 25.6984 526 25.6984 526" fill="black"/>
<path d="M231.239 525.724L205.035 451.879C205.035 451.879 202.014 427.049 200.49 408.797C198.98 390.546 188.762 370.089 188.762 370.089C188.762 370.089 171.361 386.161 138.068 392.358C104.775 398.569 62.0256 378.112 53.3179 373.371L44.6103 368.631C44.6103 368.631 13.2084 419.013 13.5894 458.089C13.9703 497.152 25.6984 526 25.6984 526" stroke="black" stroke-linecap="round" stroke-linejoin="round"/>
<path d="M128.611 484.731L135.414 526" stroke="#8C8C8C" stroke-linecap="round" stroke-linejoin="round"/>
<path d="M132.395 502.995L155.851 482.538" stroke="#8C8C8C" stroke-linecap="round" stroke-linejoin="round"/>
<path d="M183.537 334.794C183.537 334.794 191.033 353.295 191.033 363.143C191.033 372.991 186.489 380.304 171.36 389.062C156.23 397.82 125.196 401.471 98.338 397.466C71.4804 393.448 46.1331 377.022 44.6093 368.618C43.0854 360.215 55.3849 337.788 55.3849 337.788C55.3849 337.788 140.856 344.406 183.537 334.794Z" fill="white" stroke="black" stroke-linecap="round" stroke-linejoin="round"/>
<path d="M151.413 179.461C151.413 179.461 174.556 178.121 185.264 198.132C195.971 218.143 192.175 272.135 192.175 272.135C192.175 272.135 155.903 207.468 153.494 197.462C151.073 187.457 151.426 179.461 151.426 179.461H151.413Z" fill="white" stroke="black" stroke-linecap="round" stroke-linejoin="round"/>
<path d="M93.3854 125.783C93.3854 125.783 89.5894 165.779 85.4397 172.79C81.2899 179.789 47.439 190.464 27.7516 208.453C8.06423 226.455 22.2277 276.784 27.4115 294.457C32.5952 312.131 55.3847 337.788 55.3847 337.788C55.3847 337.788 72.6503 347.452 118.937 346.126C165.223 344.786 183.183 337.131 183.523 334.794C183.863 332.457 183.183 326.798 183.183 326.798C183.183 326.798 196.312 315.125 199.414 299.132C202.516 283.126 194.802 259.556 183.877 245.467C176.502 235.961 163.155 207.468 158.312 198.46C153.482 189.466 151.4 179.461 151.4 179.461C151.4 179.461 139.998 178.463 138.27 174.458C136.543 170.453 138.964 159.463 138.964 159.463C138.964 159.463 129.644 163.468 93.3718 125.796L93.3854 125.783Z" fill="white" stroke="black" stroke-linecap="round" stroke-linejoin="round"/>
<path d="M110.365 153.344C110.365 153.344 112.733 160.592 120.637 167.459C128.542 174.326 138.284 174.458 138.284 174.458L138.978 159.463L110.365 153.344Z" fill="black" stroke="black" stroke-linecap="round" stroke-linejoin="round"/>
<path d="M158.325 198.46C153.495 189.466 151.413 179.461 151.413 179.461C151.413 179.461 147.114 179.08 143.399 177.859C144.148 181.798 146.774 192.67 155.563 212.457C166.964 238.128 172.339 242.027 173.073 253.175C174.393 273.041 156.325 282.18 131.454 276.849C106.582 271.518 96.8407 252.453 92.691 240.452C88.5413 228.45 85.0854 221.124 79.2214 206.457C75.6567 197.541 71.0852 188.547 69.1396 183.124C64.7858 185.317 59.8877 187.746 54.8672 190.425C58.6088 194.653 70.4593 209.503 79.9153 237.471C91.3168 271.138 59.1938 312.144 46.7582 317.803C44.7854 318.696 43.1119 319.563 41.6289 320.377C48.6222 330.172 55.3978 337.801 55.3978 337.801C55.3978 337.801 72.6634 347.465 118.95 346.139C165.236 344.799 183.196 337.144 183.536 334.807C183.876 332.47 183.196 326.811 183.196 326.811C183.196 326.811 196.325 315.138 199.427 299.145C202.53 283.139 194.244 257.482 183.89 245.481C176.012 236.368 163.168 207.481 158.325 198.473V198.46Z" fill="white" stroke="black" stroke-linecap="round" stroke-linejoin="round"/>
<path d="M137.617 179.854L138.896 188.915C138.896 188.915 145.726 189.742 152.978 186.446" stroke="black" stroke-linecap="round" stroke-linejoin="round"/>
<path d="M83.4258 200.036C83.4258 200.036 106.46 195.099 109.875 194.679C113.29 194.259 117.984 195.086 117.984 195.086" stroke="black" stroke-linecap="round" stroke-linejoin="round"/>
<path d="M111.984 332.089C123.182 332.628 148.91 332.693 175.414 324.592" stroke="black" stroke-linecap="round" stroke-linejoin="round"/>
<path d="M106.133 331.669C106.133 331.669 107.262 331.788 109.33 331.932" stroke="black" stroke-linecap="round" stroke-linejoin="round"/>
<path d="M152.692 334.505C148.91 335.057 144.91 335.49 140.773 335.726" stroke="black" stroke-linecap="round" stroke-linejoin="round"/>
<path d="M183.196 326.798C183.196 326.798 172.339 331.131 156.896 333.836" stroke="black" stroke-linecap="round" stroke-linejoin="round"/>
<path d="M144.176 29.8914C144.176 29.8914 141.537 16.9054 127.291 6.96563C113.046 -2.96101 86.9234 1.87101 82.4336 4.6678C77.9437 7.46459 75.0457 11.5482 75.0457 11.5482L90.0936 12.8218C90.0936 12.8218 68.7191 17.4043 62.9094 27.3441C57.0998 37.2707 58.6917 43.639 58.6917 43.639L65.8211 39.5686C65.8211 39.5686 56.3243 51.7931 59.7529 66.0527C63.1816 80.3124 88.2568 95.5963 101.971 89.9896C115.699 84.3829 121.237 51.7931 127.305 46.6984C133.373 41.6038 142.87 41.0917 143.931 38.807C144.992 36.5092 144.19 29.8914 144.19 29.8914H144.176Z" fill="black" stroke="black" stroke-linecap="round" stroke-linejoin="round"/>
<path d="M171.646 91.8672C171.646 91.8672 165.415 109.948 170.313 131.718C175.211 153.502 166.122 162.509 161.483 164.623C156.843 166.737 155.51 165.49 155.51 165.49C155.51 165.49 164.272 162.483 166.34 155.012C168.408 147.54 167.701 136.077 167.701 136.077C167.701 136.077 161.946 152.175 158.735 158.833C155.524 165.49 151.156 165.188 151.156 165.188C151.156 165.188 168.558 145.426 164.34 126.453C160.122 107.479 171.646 91.8672 171.646 91.8672Z" fill="black" stroke="black" stroke-linecap="round" stroke-linejoin="round"/>
<path d="M88.7716 80.562C88.7716 80.562 93.0846 42.8644 120.173 33.2004C146.555 23.7727 173.48 32.6883 184.297 51.281C195.113 69.8738 187.467 91.0138 184.555 100.94C181.644 110.867 175.589 116.986 175.589 120.807C175.589 124.628 175.331 133.031 171.889 138.375C168.46 143.72 148.936 159.253 143.126 162.312C137.317 165.372 128.609 167.656 120.963 162.824C113.316 157.992 91.9417 139.649 90.0913 127.687C88.2409 115.712 87.9824 98.9052 87.9824 98.9052L88.7716 80.5751V80.562Z" fill="white" stroke="black" stroke-linecap="round" stroke-linejoin="round"/>
<path d="M184.284 51.281C173.467 32.6883 146.555 23.7727 120.16 33.2004C93.0714 42.8775 88.7584 80.562 88.7584 80.562L88.4863 86.7333L92.4456 87.6918C92.4456 87.6918 99.5749 85.394 101.153 81.0741C102.731 76.7541 106.704 72.1847 111.439 69.6112C118.038 66.0397 121.657 61.5228 122.786 54.8394C124.637 43.8886 137.031 41.5907 151.549 47.46C166.066 53.3162 166.052 54.3404 177.141 54.3404C183.59 54.3404 188.638 62.1268 189.862 74.3775C190.025 66.88 188.678 58.8704 184.27 51.281H184.284Z" fill="black" stroke="black" stroke-linecap="round" stroke-linejoin="round"/>
<path d="M145.237 94.5721C145.237 94.5721 138.91 85.9192 124.121 87.6918" stroke="black" stroke-width="2" stroke-linecap="round" stroke-linejoin="round"/>
<path d="M124.121 100.678C124.121 100.678 127.822 106.784 138.897 105.772" stroke="black" stroke-linecap="round" stroke-linejoin="round"/>
<path d="M158.965 100.94C158.965 100.94 169.523 98.3931 174.271 107.821" stroke="black" stroke-width="2" stroke-linecap="round" stroke-linejoin="round"/>
<path d="M156.582 111.13C156.582 111.13 159.222 116.986 170.31 116.986" stroke="black" stroke-linecap="round" stroke-linejoin="round"/>
<path d="M156.842 100.428C156.842 100.428 150.515 103.225 150.243 106.035C149.985 108.832 150.774 122.842 149.985 124.877C149.195 126.913 142.597 128.698 138.379 123.092" stroke="black" stroke-linecap="round" stroke-linejoin="round"/>
<path d="M124.121 124.628C124.121 124.628 129.659 135.828 143.645 136.852" stroke="black" stroke-linecap="round" stroke-linejoin="round"/>
<path d="M124.393 103.737C124.393 103.737 129.672 106.534 135.209 107.046" stroke="black" stroke-linecap="round" stroke-linejoin="round"/>
<path d="M157.113 113.677C157.113 113.677 161.331 117.747 166.882 117.747" stroke="black" stroke-linecap="round" stroke-linejoin="round"/>
<path d="M95.5346 91.6573C95.5346 91.6573 91.6842 72.7494 84.3371 76.8067C76.9901 80.8641 78.7452 97.0671 82.582 103.133C86.4324 109.213 91.6706 106.849 91.6706 106.849" fill="white"/>
<path d="M95.5346 91.6573C95.5346 91.6573 91.6842 72.7494 84.3371 76.8067C76.9901 80.8641 78.7452 97.0671 82.582 103.133C86.4324 109.213 91.6706 106.849 91.6706 106.849" stroke="black" stroke-linecap="round" stroke-linejoin="round"/>
<path d="M97.1967 83.7789C97.1967 83.7789 95.8089 102.779 82.6931 121.109C69.5636 139.439 74.4072 151.112 77.8631 154.775C81.3189 158.439 83.0468 157.769 83.0468 157.769C83.0468 157.769 76.1352 151.768 77.1692 144.1C78.2032 136.432 83.387 126.098 83.387 126.098C83.387 126.098 82.3529 143.102 82.6931 150.429C83.0332 157.769 87.183 159.095 87.183 159.095C87.183 159.095 78.8971 134.423 90.285 118.43C101.687 102.424 97.1967 83.7657 97.1967 83.7657V83.7789Z" fill="black" stroke="black" stroke-linecap="round" stroke-linejoin="round"/>
<path d="M152.134 243.078L123.113 239.218L119.1 282.824L148.121 286.684C151.522 286.973 155.168 277.454 156.27 265.413C157.386 253.372 155.522 243.367 152.134 243.078Z" fill="white" stroke="black" stroke-linecap="round" stroke-linejoin="round"/>
<path d="M127.25 261.552C126.134 273.593 122.488 283.126 119.1 282.824C115.713 282.522 113.849 272.529 114.964 260.489C116.08 248.448 119.726 238.915 123.114 239.217C126.515 239.506 128.366 249.512 127.25 261.552Z" fill="black" stroke="black" stroke-linecap="round" stroke-linejoin="round"/>
<path d="M41.9833 199.498C41.9833 199.498 15.8876 209.03 6.40446 231.536C-3.07869 254.042 0.472382 287.997 12.7311 319.274C24.9898 350.55 39.6159 381.079 51.861 384.125C64.1197 387.171 77.9567 350.931 84.2697 339.114C90.5827 327.296 106.801 296.387 107.59 292.579C108.379 288.772 119.849 276.56 123.794 272.739C127.74 268.918 126.951 262.064 126.556 259.766C126.162 257.482 121.808 241.449 120.624 239.926C119.44 238.403 117.468 239.165 115.876 238.403C114.297 237.642 99.6713 233.821 99.6713 233.821C99.6713 233.821 92.9501 230.394 89.7936 231.917C86.6371 233.44 85.8343 235.738 85.8343 235.738C85.8343 235.738 86.6235 245.651 83.8615 252.899C81.0996 260.147 74.7729 268.918 75.9566 270.441C77.1403 271.965 84.6507 282.272 84.6507 282.272C84.6507 282.272 77.1403 296.768 67.6572 307.837L60.936 283.047" fill="white"/>
<path d="M41.9833 199.498C41.9833 199.498 15.8876 209.03 6.40446 231.536C-3.07869 254.042 0.472382 287.997 12.7311 319.274C24.9898 350.55 39.6159 381.079 51.861 384.125C64.1197 387.171 77.9567 350.931 84.2697 339.114C90.5827 327.296 106.801 296.387 107.59 292.579C108.379 288.772 119.849 276.56 123.794 272.739C127.74 268.918 126.951 262.064 126.556 259.766C126.162 257.482 121.808 241.449 120.624 239.926C119.44 238.403 117.468 239.165 115.876 238.403C114.297 237.642 99.6713 233.821 99.6713 233.821C99.6713 233.821 92.9501 230.394 89.7936 231.917C86.6371 233.44 85.8343 235.738 85.8343 235.738C85.8343 235.738 86.6235 245.651 83.8615 252.899C81.0996 260.147 74.7729 268.918 75.9566 270.441C77.1403 271.965 84.6507 282.272 84.6507 282.272C84.6507 282.272 77.1403 296.768 67.6572 307.837L60.936 283.047" stroke="black" stroke-linecap="round" stroke-linejoin="round"/>
<path d="M107.604 292.579C107.713 292.041 108.053 291.332 108.543 290.505L108.339 289.809C93.9982 289.481 84.6783 282.272 84.6783 282.272C84.6783 282.272 77.1679 296.768 67.6848 307.837L62.3105 315.886C71.1542 328.019 82.2701 331.052 88.1885 331.787C95.6172 317.698 106.951 295.757 107.617 292.593L107.604 292.579Z" fill="#A1A1A1" stroke="black" stroke-linecap="round" stroke-linejoin="round"/>
<path d="M62.3093 315.886C62.3093 315.886 33.2884 336.173 31.9551 347.754" stroke="black" stroke-linecap="round" stroke-linejoin="round"/>
<path d="M115.902 238.416C115.902 238.416 119.862 253.293 119.862 260.16" stroke="black" stroke-linecap="round" stroke-linejoin="round"/>
<path d="M108.787 237.274C108.787 237.274 110.76 250.628 111.549 256.733" stroke="black" stroke-linecap="round" stroke-linejoin="round"/>
<path d="M99.6992 233.834C99.6992 233.834 102.067 250.234 102.067 254.435" stroke="black" stroke-linecap="round" stroke-linejoin="round"/>
<path d="M101.536 259.084C101.536 259.084 100.094 260.252 98.8828 261.644" stroke="black" stroke-linecap="round" stroke-linejoin="round"/>
<path d="M110.448 261.185C110.448 261.185 109.006 262.353 107.795 263.745" stroke="black" stroke-linecap="round" stroke-linejoin="round"/>
<path d="M119.36 263.272C119.36 263.272 117.918 264.441 116.707 265.833" stroke="black" stroke-linecap="round" stroke-linejoin="round"/>
<path d="M83.1674 232.284L54.1465 228.424L50.1328 272.03L79.1537 275.891C82.5551 276.18 86.2014 266.66 87.3035 254.619C88.4192 242.579 86.5552 232.573 83.1674 232.284Z" fill="white" stroke="black" stroke-linecap="round" stroke-linejoin="round"/>
<path d="M58.2833 250.746C57.1677 262.787 53.5214 272.319 50.1335 272.017C46.7457 271.715 44.8817 261.723 45.9974 249.682C47.1131 237.642 50.7594 228.109 54.1472 228.411C57.535 228.7 59.399 238.705 58.2833 250.746Z" fill="black" stroke="black" stroke-linecap="round" stroke-linejoin="round"/>
</svg>
