<svg width="132" height="37" viewBox="0 0 132 37" fill="none" xmlns="http://www.w3.org/2000/svg">
<g clip-path="url(#clip0_85_56)">
<path d="M10.1409 31.9875C9.49634 31.9875 8.5142 31.7107 7.19448 31.1572C4.49358 30.0194 1.36301 28.2973 0.380859 27.5286L2.68275 22.5776L2.86691 22.5468C4.21736 23.2849 6.15094 24.1459 6.67271 24.1459C7.44001 24.1459 8.23802 23.9614 9.06671 23.5617C10.724 22.7928 12.1972 21.5628 12.8111 20.5787L12.8418 19.5947C12.8111 19.6255 12.9646 19.81 13.2408 20.1483C13.517 20.4865 13.6705 20.7633 13.7319 20.9785C12.8418 21.0708 11.7062 21.0708 10.3558 21.0093C7.65486 20.8862 5.07673 20.2713 4.61635 19.072C4.43219 18.5492 4.34012 17.3499 4.34012 15.5048C4.34012 12.7064 5.04604 7.23269 5.93611 5.29535C6.7034 3.66553 8.26866 2.89675 10.6319 3.05051C14.2843 3.26577 17.0466 6.09489 18.2743 9.16999C19.2258 11.5071 19.5633 14.7668 19.5633 17.5037C19.5327 19.9945 19.2871 21.7781 18.6733 23.7462C18.3971 24.6994 17.8446 25.8372 16.9545 27.1596C15.1744 29.7734 12.5962 31.9875 10.1409 31.9875ZM12.9338 12.5834C12.6883 11.7531 11.9211 10.7999 10.2944 10.7691C10.1716 10.9228 10.0181 11.9992 10.1409 12.2759C10.233 12.4912 12.32 12.6757 12.9338 12.5834ZM27.9422 32.2335C27.2977 32.2335 26.3462 31.926 25.0572 31.3417C22.6939 30.2039 19.7168 28.4511 18.2436 27.3748L20.6683 22.3623L20.791 22.3316C21.9266 23.1619 24.3206 24.2689 24.9651 24.3612C25.5482 24.4227 26.2849 24.1459 27.2364 23.5309C29.2006 22.2701 30.858 20.1483 31.0728 18.4569C31.1035 18.1802 31.0728 17.9034 31.0421 17.6266C30.8887 16.5503 29.5383 13.5367 27.9422 10.4923L34.4183 5.78737L34.8786 5.91038L35.5231 8.0322C36.0449 9.84654 36.4439 11.0151 36.6894 11.5994C36.9657 12.2144 37.334 12.3681 38.4389 12.3681H38.9913C39.4211 12.3681 39.728 12.4604 39.9121 12.6757C40.0656 12.8909 40.1883 13.3215 40.2498 14.0287C40.2804 14.7361 40.3111 15.7508 40.3111 17.0731C40.3111 18.3339 40.2804 19.2257 40.219 19.81C40.0656 20.9478 39.7587 21.2553 38.9913 21.2553H37.6409C36.8122 21.2553 36.2597 21.1015 35.9836 20.8248C36.137 20.671 37.1191 20.3327 37.1191 20.5787C37.1191 21.2861 36.9657 22.4546 36.8429 23.0389C36.4439 24.638 35.7687 26.1447 34.7865 27.5593C32.7916 30.3577 30.1521 32.2027 27.9422 32.2335ZM38.4696 21.2553C37.1805 21.2553 37.2726 18.58 37.2726 16.5503C37.2726 15.2281 37.334 14.1825 37.4568 13.4444C37.6102 12.7372 37.9478 12.3681 38.4696 12.3681H39.3903C40.3725 12.3374 41.2625 12.2759 42.0299 12.1837C42.7972 12.0914 43.1962 11.9377 43.2575 11.7839C43.2883 11.7531 43.2883 11.6301 43.2883 11.4764C43.2575 10.4 42.7665 7.38644 42.1526 5.94114L49.4266 2.98901H49.8256C50.4087 4.86484 50.8998 9.47757 50.8998 11.8146C50.8998 13.2907 49.9791 18.2109 49.2425 19.8407C48.1375 20.9478 43.2268 21.2553 39.6666 21.2553H38.4696ZM42.7665 32.5718C42.5516 32.418 41.5081 31.3417 39.5745 29.3429L38.8686 28.6356C39.6051 27.5593 42.1219 25.1607 42.8892 24.6687L46.603 28.6971C46.4801 29.3122 43.411 32.3258 42.7665 32.5718ZM58.051 36.9385L57.9283 34.9704C57.6521 30.4192 57.4679 26.5138 57.3758 23.2849C57.2837 20.0252 57.3758 17.8419 57.6828 16.7348C58.0204 15.5048 60.4143 12.7987 61.7341 12.0606L61.8569 11.3226C62.1944 9.32382 62.5935 7.01743 63.0846 5.3261C63.7905 3.01976 65.724 1.7282 68.7625 1.97421C72.3535 2.22022 74.8088 4.83408 76.3128 8.67797C77.1722 10.9228 77.6939 12.3681 79.4431 12.3681H79.9648C80.3639 12.3681 80.6098 12.4604 80.7631 12.6449C81.0703 13.0447 81.1316 14.7975 81.1316 16.9501C81.1316 18.3339 81.1009 19.318 81.0703 19.8715C80.9469 21.0093 80.7324 21.2553 79.9648 21.2553H78.2463C77.1107 21.2553 76.5276 21.1938 75.9444 20.7325C75.4227 21.5628 74.594 21.9625 73.2743 21.9625C71.5248 21.9625 70.0516 21.7781 67.5042 21.409C65.8775 21.163 64.6498 21.0093 63.8212 20.9478C63.6984 25.3452 63.8212 27.2518 64.1894 32.6948L64.2815 34.1401L58.6342 36.877L58.051 36.9385ZM71.5555 12.7987C71.5555 11.9069 69.2843 10.4616 67.7804 10.6154L67.4428 12.3681C70.1744 12.9524 71.5555 13.0755 71.5555 12.7987ZM79.3205 21.2553C78.1236 21.2553 78.0929 20.2405 78.0929 18.9797C78.0929 15.3203 78.1543 13.2907 78.3078 12.9524C78.4612 12.5527 78.7988 12.3681 79.3205 12.3681H80.3639C81.7146 12.3681 83.2184 12.0914 83.6788 11.7224C83.7708 11.6301 83.8321 11.0151 83.8321 9.90803C83.8014 8.8318 83.7708 7.75546 83.7095 6.67917L90.4313 5.72588C90.3087 7.72471 90.4619 11.1689 90.799 11.7531C91.1368 12.2759 92.8253 12.3681 93.9607 12.3681H94.8203C95.2501 12.3681 95.5565 12.4297 95.7097 12.5834C96.0476 12.9524 96.0476 14.5822 96.0476 16.6734C96.0476 18.3647 96.0476 19.4717 96.0169 19.9945C95.9556 21.0401 95.7097 21.2553 94.8203 21.2553H93.0398C90.4313 21.2553 88.8347 21.0401 88.1904 20.5787C87.6993 20.2405 87.3929 19.7485 87.2696 19.1335C87.2389 19.1027 87.2696 19.1027 87.3309 19.072C87.3623 19.072 87.3929 19.072 87.3929 19.072C87.2696 19.441 87.0244 20.0867 86.7785 20.2405C85.8883 21.0093 83.0652 21.2553 80.5179 21.2553H79.3205ZM89.2951 31.4648C89.1113 31.311 88.0985 30.2962 86.2874 28.4204L85.6125 27.7438C86.3181 26.7598 88.6815 24.4534 89.4185 23.9922L92.9479 27.8053C92.8253 28.3896 89.9402 31.2495 89.2951 31.4648ZM82.6354 31.803C82.4516 31.6492 81.438 30.6345 79.6277 28.7586L78.952 28.0821C79.6583 27.0981 82.0218 24.7917 82.758 24.3304L86.2874 28.1436C86.1648 28.7279 83.2797 31.5877 82.6354 31.803ZM94.2059 21.2245C93.7769 21.2245 93.4696 21.1323 93.3164 20.9478C92.9786 20.5787 93.0092 18.9182 93.0092 16.8886C93.0092 15.2588 93.0092 14.1825 93.0398 13.6597C93.1011 12.6141 93.3471 12.3681 94.2059 12.3681H107.281C107.711 12.3681 108.018 12.4604 108.171 12.6141C108.509 13.0447 108.478 14.7975 108.478 16.8886C108.478 18.4569 108.478 19.5024 108.447 19.9945C108.386 20.9785 108.14 21.2245 107.281 21.2245H94.2059ZM106.79 21.2245C105.409 21.2245 105.409 20.3327 105.409 18.9489C105.409 15.2896 105.47 13.26 105.624 12.9217C105.777 12.5219 106.084 12.3374 106.606 12.3374H110.381H111.731C115.507 12.3681 116.98 12.2452 119.067 11.0458C116.366 9.53905 114.954 8.77024 113.695 8.64727C112.867 8.61649 111.578 9.90803 110.565 11.1074H110.043L107.925 7.04818L108.754 5.91038C111.209 2.55849 113.082 0.282888 114.678 0.159883C116.151 0.067629 117.256 0.528899 118.821 1.48219L120.97 2.8045C123.272 4.28056 124.745 5.11085 126.679 5.84888C128.152 6.37165 129.84 6.55616 131.743 6.4024L131.834 6.70992C131.559 7.35569 131.036 8.55501 130.269 10.3079C129.686 11.5686 129.165 12.768 128.704 13.9058C128.336 13.9672 127.998 13.9979 127.722 13.9672C127.077 13.9365 126.555 13.875 126.095 13.8442L125.297 13.7827C124.929 13.8135 124.499 14.0902 124.008 14.5822C123.517 15.105 122.873 15.8431 122.105 16.7963C120.263 19.0412 119.097 20.3635 117.839 20.8248C116.949 21.163 114.432 21.2861 110.35 21.2245H109.522H106.79ZM118.268 32.5718C118.054 32.418 117.01 31.3417 115.077 29.3429L114.37 28.6356C115.107 27.5593 117.624 25.1607 118.392 24.6687L122.105 28.6971C121.982 29.3122 118.913 32.3258 118.268 32.5718Z" fill="black"/>
</g>
<defs>
<clipPath id="clip0_85_56">
<rect width="132" height="37" fill="white"/>
</clipPath>
</defs>
</svg>
