<svg width="25" height="24" viewBox="0 0 25 24" fill="none" xmlns="http://www.w3.org/2000/svg">
<path d="M8.34837 19.0501L4.33837 15.0401C2.99837 13.7001 2.99837 12.3701 4.33837 11.0301L11.0184 4.3501L18.3684 11.7001C18.7384 12.0701 18.7384 12.6701 18.3684 13.0401L12.3484 19.0601C11.0284 20.3801 9.68837 20.3801 8.34837 19.0501Z" stroke="#323232" stroke-width="1.5" stroke-miterlimit="10" stroke-linecap="round" stroke-linejoin="round"/>
<path d="M9.68823 3L11.0282 4.33997" stroke="#323232" stroke-width="1.5" stroke-miterlimit="10" stroke-linecap="square" stroke-linejoin="round"/>
<path d="M3.40808 12.97L18.5281 12.3101" stroke="#323232" stroke-width="1.5" stroke-miterlimit="10" stroke-linecap="round" stroke-linejoin="round"/>
<path d="M20.1881 16.05C20.1881 16.05 18.3381 18.06 18.3381 19.29C18.3381 20.31 19.1681 21.14 20.1881 21.14C21.2081 21.14 22.0381 20.31 22.0381 19.29C22.0381 18.06 20.1881 16.05 20.1881 16.05Z" stroke="#323232" stroke-width="1.5" stroke-linecap="round" stroke-linejoin="round"/>
</svg>
