<svg width="24" height="24" viewBox="0 0 24 24" fill="none" xmlns="http://www.w3.org/2000/svg">
<path d="M15.2498 7.36284C15.2498 9.30889 13.672 10.8858 11.7269 10.8858V12.3258C14.467 12.3258 16.6898 10.1045 16.6898 7.36284H15.2498ZM11.7269 10.8858C9.78044 10.8858 8.2027 9.30875 8.2027 7.36284H6.7627C6.7627 10.1046 8.9857 12.3258 11.7269 12.3258V10.8858ZM8.2027 7.36284C8.2027 5.41694 9.78044 3.8399 11.7269 3.8399V2.3999C8.9857 2.3999 6.7627 4.62109 6.7627 7.36284H8.2027ZM11.7269 3.8399C13.672 3.8399 15.2498 5.4168 15.2498 7.36284H16.6898C16.6898 4.62124 14.467 2.3999 11.7269 2.3999V3.8399Z" fill="black"/>
<path d="M11.7602 14.7061C14.8863 14.6981 17.5444 16.1334 18.5214 19.2232C16.552 20.4238 14.234 20.8861 11.7602 20.88C9.28639 20.8861 6.96834 20.4238 4.99902 19.2232C5.97717 16.1301 8.63073 14.698 11.7602 14.7061Z" stroke="black" stroke-width="1.44" stroke-linecap="square"/>
</svg>
